<?xml version="1.0" standalone="no"?><svg xmlns="http://www.w3.org/2000/svg" viewBox="0 0 1440 320"><path fill="#dc143c" fill-opacity="1" d="M0,32L24,32C48,32,96,32,144,64C192,96,240,160,288,176C336,192,384,160,432,160C480,160,528,192,576,176C624,160,672,96,720,96C768,96,816,160,864,165.3C912,171,960,117,1008,101.3C1056,85,1104,107,1152,117.3C1200,128,1248,128,1296,133.3C1344,139,1392,149,1416,154.7L1440,160L1440,320L1416,320C1392,320,1344,320,1296,320C1248,320,1200,320,1152,320C1104,320,1056,320,1008,320C960,320,912,320,864,320C816,320,768,320,720,320C672,320,624,320,576,320C528,320,480,320,432,320C384,320,336,320,288,320C240,320,192,320,144,320C96,320,48,320,24,320L0,320Z"></path></svg>